<svg xmlns="http://www.w3.org/2000/svg" xmlns:xlink="http://www.w3.org/1999/xlink" version="1.1" x="0px" y="0px" viewBox="0 0 100 125" enable-background="new 0 0 100 100" xml:space="preserve"><path fill="#000000" d="M83.7,31.9c0-2-0.8-3.9-2.3-5.2c-1.5-1.4-3.4-2.1-5.4-2l-0.4,0c-2.1,0.1-3.9,1-5.3,2.3v-4.4  c0-3.2-2.6-5.8-5.8-5.8h-4.2c-1.6,0-3,0.6-4.1,1.7c-1-1.9-3-3.1-5.2-3.1h-3.9c-2.7,0-5,1.8-5.7,4.3c-1-0.8-2.2-1.2-3.6-1.2h-4.1  c-2.9,0-5.3,2.2-5.8,5c-0.9-0.6-2-1-3.2-1h-3c-3.1,0-5.6,2.5-5.6,5.6V41c0,0.9,0,2.1,0,3.5V49c0,0.9,0.2,1.7,0.5,2.5  c0.9,8.1,3.4,18.4,9.9,25.4c4.8,5.2,11.3,7.9,19.1,7.9c32.2,0,38-27.4,38-27.6l0-0.2C83.8,50.9,83.8,38.7,83.7,31.9z M60.4,19.3h4.2  c1.8,0,3.3,1.5,3.3,3.3v10.3v16.5v5.5c0,3-2.4,5.4-5.4,5.4s-5.4-2.4-5.4-5.4V22.6C57.1,20.7,58.6,19.3,60.4,19.3z M43.8,21.3  c0-1.9,1.6-3.5,3.5-3.5h3.9c1.9,0,3.5,1.6,3.5,3.5v1.3v32.3v4.6c0,3-2.4,5.4-5.4,5.4s-5.4-2.4-5.4-5.4v-4.6V24.2V21.3z M30.4,24.2  c0-1.8,1.5-3.4,3.4-3.4h4.1c1.8,0,3.4,1.5,3.4,3.4v30.7c0,3-2.4,5.4-5.4,5.4s-5.4-2.4-5.4-5.4v-6v-21V24.2z M21.8,24.8h3  c1.7,0,3.1,1.4,3.1,3.1v21c0,2.5-2.1,4.6-4.6,4.6c-1.8,0-3.4-1.1-4.1-2.6c-0.3-3.1-0.4-5.9-0.5-8V42c0-1.9,0.1-3.1,0.1-3.2l-0.1,0  V27.9C18.7,26.2,20.1,24.8,21.8,24.8z M81.2,56.7c-0.4,2-6.2,25.5-35.6,25.5c-7.1,0-12.9-2.4-17.2-7.1c-5-5.4-7.4-13.1-8.6-20  c1,0.6,2.3,1,3.6,1c1.8,0,3.4-0.6,4.6-1.7v0.6c0,4.4,3.5,7.9,7.9,7.9c2.1,0,4.1-0.9,5.5-2.2c0.5,3.9,3.8,6.8,7.8,6.8s7.3-3,7.8-6.8  c1.4,1.4,3.4,2.2,5.5,2.2c4.4,0,7.9-3.5,7.9-7.9v-5.5V32.9c0-3,2.4-5.5,5.4-5.7l0.4,0c1.3-0.1,2.6,0.4,3.5,1.3  c1,0.9,1.5,2.1,1.5,3.4C81.3,38.6,81.3,50.7,81.2,56.7z"/><text x="0" y="115" fill="#000000" font-size="5px" font-weight="bold" font-family="'Helvetica Neue', Helvetica, Arial-Unicode, Arial, Sans-serif">Created by Stephanie Leeson</text><text x="0" y="120" fill="#000000" font-size="5px" font-weight="bold" font-family="'Helvetica Neue', Helvetica, Arial-Unicode, Arial, Sans-serif">from the Noun Project</text></svg>