<svg xmlns="http://www.w3.org/2000/svg" xmlns:xlink="http://www.w3.org/1999/xlink" version="1.1" x="0px" y="0px" viewBox="0 0 100 125" enable-background="new 0 0 100 100" xml:space="preserve"><path fill="#000000" d="M95,63.2c-1.7-3.1-5.2-6.6-11.8-5.8l-13.6,2.9l-0.9-10.3L68,39.1V9.7c0-4.3-3.6-7.7-8-7.7  c-4.1,0-8.8,3.4-8.8,7.9v25.3c-1-0.7-2.2-1.1-3.5-1.1h-4c-2.5,0-4.7,1.6-5.6,3.9c-1-0.8-2.3-1.4-3.7-1.4h-4.2  c-2.6,0-4.7,1.6-5.5,3.9c-0.9-0.7-2.1-1.2-3.4-1.2h-3.1c-3.1,0-5.6,2.5-5.6,5.6v8.3c-0.4,6.2-0.7,26.6,8.8,37.6  c3.8,4.4,8.7,6.8,14.7,7.1c1,0.1,2,0.1,3,0.1C61.5,98,68,84.3,69.2,81.1l23-7.5c1.3-0.3,2.4-1.2,3-2.6C96.3,68.6,96.1,65.2,95,63.2z   M40.2,40.1c0-1.9,1.6-3.5,3.5-3.5h4c1.9,0,3.5,1.6,3.5,3.5v2.2v21.5c0,1.5-1.2,2.7-2.7,2.7h-5.1c-1.7,0-3.1-1.4-3.1-3.1v-1.7V42.5  V40.1z M26.8,42.5c0-1.8,1.5-3.4,3.4-3.4h4.2c1.8,0,3.4,1.5,3.4,3.4v19.2c0,1.3-1,2.3-2.3,2.3h-5.7c-1.6,0-3-1.3-3-3v-2.1V45V42.5z   M18.1,41.9h3.1c1.7,0,3.1,1.4,3.1,3.1v13.9c0,1.3-1,2.3-2.3,2.3h-4.6c-1.4,0-2.5-1.1-2.5-2.5v-5.3c0.1-1.1,0.1-1.8,0.1-1.8  c0-0.2,0-0.4-0.1-0.6V45C15,43.3,16.4,41.9,18.1,41.9z M92.9,69.9c-0.3,0.7-0.8,1.1-1.3,1.2l-24.4,8L67,79.7c0,0.2-4.9,17-31,15.7  c-5.2-0.3-9.6-2.4-12.9-6.2c-5.9-6.8-7.7-17.8-8.2-26.1c0.7,0.4,1.5,0.7,2.4,0.7H22c1,0,1.9-0.3,2.6-0.8c0.8,2.1,2.8,3.6,5.1,3.6  h5.7c1,0,2-0.3,2.7-0.9c0.9,2,2.8,3.4,5.1,3.4h5.1c2.9,0,5.2-2.3,5.2-5.2V42.3v-2.2V9.9c0-3,3.4-5.4,6.3-5.4c3.1,0,5.5,2.3,5.5,5.2  l0,29.5l0.7,10.9l1.1,13.2l16.2-3.5c4.2-0.4,7.4,1.1,9.3,4.6C93.6,65.8,93.7,68.3,92.9,69.9z"/><text x="0" y="115" fill="#000000" font-size="5px" font-weight="bold" font-family="'Helvetica Neue', Helvetica, Arial-Unicode, Arial, Sans-serif">Created by Stephanie Leeson</text><text x="0" y="120" fill="#000000" font-size="5px" font-weight="bold" font-family="'Helvetica Neue', Helvetica, Arial-Unicode, Arial, Sans-serif">from the Noun Project</text></svg>