<svg xmlns="http://www.w3.org/2000/svg" xmlns:xlink="http://www.w3.org/1999/xlink" version="1.1" x="0px" y="0px" viewBox="0 0 100 125" enable-background="new 0 0 100 100" xml:space="preserve"><path fill="#000000" d="M82.3,56.1l0-0.5l-8.8-8.5v-9.3c0-3.2-2.6-5.8-5.8-5.8h-4.9c-1.6,0-3.1,0.7-4.1,1.7c-1-1.8-3-3-5.2-3h-4.6  c-2.6,0-4.8,1.7-5.6,4c-1-0.8-2.3-1.3-3.7-1.3h-4.9c-2.4,0-4.5,1.5-5.4,3.6c-1-0.9-2.3-1.4-3.8-1.4h-4.1c-3.2,0-5.9,2.6-5.9,5.9v18  c0,1.5,0.4,2.9,1.2,4.1c0,0,0,0,0,0c-0.1,0.5-1.3,13.1,6.8,22.2c5.1,5.7,12.8,8.6,22.8,8.6c22.7,0,28.3-8.6,32-17.5  C79.3,74,82.8,60.8,82.3,56.1z M62.6,34.5h4.9c1.8,0,3.3,1.5,3.3,3.3v6.9l-2-1.9c-1.5-1.3-3.7-2.4-6-2.9l-3.5-0.7v-1.3  C59.3,36,60.8,34.5,62.6,34.5z M48.7,33.3h4.6c1.9,0,3.5,1.6,3.5,3.5v1.1v0.7l-9-1.9c-0.9-0.2-1.7-0.2-2.6,0  C45.3,34.8,46.8,33.3,48.7,33.3z M31.2,39.3c0-1.8,1.5-3.4,3.4-3.4h4.9c1.4,0,2.6,0.9,3.1,2.1c-0.2,0.2-0.4,0.4-0.6,0.6  c-1.5,1.7-2,4-1.3,6.1l0.9,2.7c0.3,1,0.8,1.9,1.4,2.7v14.3c0,3-2.4,5.4-5.4,5.4h-0.8c-3,0-5.4-2.4-5.4-5.4v-4.9v-18V39.3z   M60.7,59.5c0.1,0,0.2,0.1,0.3,0.1l7,9.7c-0.7,0.4-1.6,0.6-2.5,0.6h-0.8c-3,0-5.4-2.4-5.4-5.4v-5.6L60.7,59.5z M45.2,64.4V52.6  c0.5,0.4,1.1,0.7,1.7,1l9.8,4.2v6.6v2.3c0,3-2.4,5.4-5.4,5.4h-0.8c-3,0-5.4-2.4-5.4-5.4V64.4z M17.9,41.5c0-1.8,1.5-3.4,3.4-3.4h4.1  c1.8,0,3.4,1.5,3.4,3.4v18c0,3-2.4,5.4-5.4,5.4s-5.4-2.4-5.4-5.4V41.5z M75.8,76c-2.8,6.7-6.7,16-29.7,16c-9.3,0-16.3-2.6-21-7.8  c-5.5-6-6.2-14.2-6.3-18c1.2,0.8,2.7,1.3,4.3,1.3c2.1,0,4-0.8,5.4-2.2c0.4,4,3.8,7.1,7.9,7.1h0.8c2.4,0,4.5-1.1,5.9-2.7  c1.1,3,4,5.1,7.4,5.1h0.8c3.4,0,6.2-2.1,7.4-5.1c1.5,1.7,3.6,2.7,5.9,2.7h0.8c1.6,0,3-0.5,4.3-1.3c0.1,0,0.1,0,0.2,0  c0.3,0,0.5-0.1,0.7-0.2c0.6-0.4,0.7-1.2,0.3-1.7l-8.3-11.6c-0.3-0.4-0.8-0.6-1.3-0.5L48,51.3c-2-0.8-3.5-2.5-4.2-4.6L42.9,44  c-0.4-1.3-0.1-2.7,0.8-3.7c0.9-1,2.3-1.5,3.6-1.2l15,3.2c1.9,0.4,3.7,1.3,4.8,2.3l12.7,12.2C80,61.3,76.9,73.5,75.8,76z"/><text x="0" y="115" fill="#000000" font-size="5px" font-weight="bold" font-family="'Helvetica Neue', Helvetica, Arial-Unicode, Arial, Sans-serif">Created by Stephanie Leeson</text><text x="0" y="120" fill="#000000" font-size="5px" font-weight="bold" font-family="'Helvetica Neue', Helvetica, Arial-Unicode, Arial, Sans-serif">from the Noun Project</text></svg>